<svg width="100%" height="100%" xmlns="http://www.w3.org/2000/svg" viewBox="0 0 256 256">
	<g id="freja-logo-white">
		<g id="Group">
			<path
				id="Fill-1"
				d="M165.61,137.61H128.13a16,16,0,0,1-16-16V83.05a10,10,0,0,1,20,0v30.61a4,4,0,0,0,4,4h29.48a26.74,26.74,0,0,0,26.76-26.72,30.08,30.08,0,0,0-30.11-30.05h-8a10,10,0,1,1,0-20h8a50.05,50.05,0,0,1,50.1,50,46.72,46.72,0,0,1-46.75,46.68"
				style="fill:#48429e;fill-rule:evenodd"
			/>
			<path
				id="Fill-2"
				d="M132.29,50.49a10.08,10.08,0,1,1-10.08-10.08,10.07,10.07,0,0,1,10.08,10.08"
				style="fill:#48429e;fill-rule:evenodd"
			/>
			<path
				id="Fill-3"
				d="M73.87,107.4a9.57,9.57,0,1,1-9.57-9.57,9.57,9.57,0,0,1,9.57,9.57"
				style="fill:#48429e;fill-rule:evenodd"
			/>
			<path
				id="Fill-4"
				d="M73.87,150a9.32,9.32,0,1,1-9.32-9.31A9.32,9.32,0,0,1,73.87,150"
				style="fill:#48429e;fill-rule:evenodd"
			/>
			<path
				id="Fill-5"
				d="M97,70.88a9.82,9.82,0,1,1-9.82-9.82A9.82,9.82,0,0,1,97,70.88"
				style="fill:#48429e;fill-rule:evenodd"
			/>
			<path
				id="Fill-6"
				d="M95,186.21a8.82,8.82,0,1,1-8.82-8.81A8.82,8.82,0,0,1,95,186.21"
				style="fill:#48429e;fill-rule:evenodd"
			/>
			<path
				id="Fill-7"
				d="M211.86,186.21a6.8,6.8,0,1,1-6.8-6.8,6.8,6.8,0,0,1,6.8,6.8"
				style="fill:#48429e;fill-rule:evenodd"
			/>
			<path
				id="Fill-8"
				d="M130.78,206.36a8.31,8.31,0,1,1-8.32-8.31,8.31,8.31,0,0,1,8.32,8.31"
				style="fill:#48429e;fill-rule:evenodd"
			/>
			<path
				id="Fill-9"
				d="M174.09,205.6a7.56,7.56,0,1,1-7.56-7.55,7.56,7.56,0,0,1,7.56,7.55"
				style="fill:#48429e;fill-rule:evenodd"
			/>
		</g>
	</g>
</svg>
